<?xml version="1.0" encoding="utf-8"?>
<!-- Generator: Adobe Illustrator 22.1.0, SVG Export Plug-In . SVG Version: 6.00 Build 0)  -->
<svg version="1.1" id="Слой_1" xmlns="http://www.w3.org/2000/svg" xmlns:xlink="http://www.w3.org/1999/xlink" x="0px" y="0px"
	 viewBox="0 0 87 28" style="enable-background:new 0 0 87 28;" xml:space="preserve">
<style type="text/css">
	.st0{clip-path:url(#SVGID_2_);fill:#FDD023;}
</style>
<g>
	<g>
		<defs>
			<rect id="SVGID_1_" y="0" width="87" height="28"/>
		</defs>
		<clipPath id="SVGID_2_">
			<use xlink:href="#SVGID_1_"  style="overflow:visible;"/>
		</clipPath>
		<path class="st0" d="M9.2,21.9H24v5.6H0V0h9.2V21.9z M34.3,0H55v5.6H38.7c-1.7,0-3.1,1.1-3.1,2.4v3H55v10.4c0,3.4-3.6,6.1-8.1,6.1
			H26.3v-5.6h16.3c1.7,0,3.1-1.1,3.1-2.4v-3H26.3V6.1C26.3,2.8,29.9,0,34.3,0 M76.4,0h9.3v21.4c0,3.4-3.6,6.1-8,6.1H57V0.1h9.2v21.8
			h7.1c1.7,0,3.1-1.1,3.1-2.4L76.4,0L76.4,0z M85.8,26.9H86c0.1,0,0.2,0,0.2-0.1s-0.1-0.2-0.2-0.2h-0.1L85.8,26.9L85.8,26.9z
			 M85.8,27.5h-0.2v-1c0.1,0,0.2,0,0.4,0c0.2,0,0.3,0,0.3,0.1c0.1,0.1,0.1,0.1,0.1,0.2S86.3,27,86.2,27l0,0c0.1,0,0.2,0.1,0.2,0.2
			c0,0.2,0,0.2,0.1,0.2h-0.2c0,0,0-0.1-0.1-0.2c0-0.1-0.1-0.2-0.2-0.2h-0.1L85.8,27.5L85.8,27.5z M86,26.1c-0.4,0-0.8,0.4-0.8,0.8
			c0,0.5,0.3,0.8,0.8,0.8c0.4,0,0.8-0.4,0.8-0.8S86.4,26.1,86,26.1L86,26.1z M86,25.9c0.6,0,1,0.5,1,1c0,0.6-0.4,1-1,1s-1-0.4-1-1
			l0,0C85,26.4,85.4,25.9,86,25.9L86,25.9z"/>
	</g>
</g>
</svg>
